<?xml version="1.0" encoding="UTF-8" standalone="no"?>
<svg
   xmlns:dc="http://purl.org/dc/elements/1.1/"
   xmlns:cc="http://creativecommons.org/ns#"
   xmlns:rdf="http://www.w3.org/1999/02/22-rdf-syntax-ns#"
   xmlns:svg="http://www.w3.org/2000/svg"
   xmlns="http://www.w3.org/2000/svg"
   xmlns:sodipodi="http://sodipodi.sourceforge.net/DTD/sodipodi-0.dtd"
   xmlns:inkscape="http://www.inkscape.org/namespaces/inkscape"
   version="1.1"
   id="Layer_1"
   x="0px"
   y="0px"
   viewBox="0 0 32 32"
   xml:space="preserve"
   sodipodi:docname="PasswordShow.svg"
   inkscape:version="1.0.2-2 (e86c870879, 2021-01-15)"
   width="32"
   height="32"><metadata
   id="metadata993"><rdf:RDF><cc:Work
       rdf:about=""><dc:format>image/svg+xml</dc:format><dc:type
         rdf:resource="http://purl.org/dc/dcmitype/StillImage" /><dc:title /></cc:Work></rdf:RDF></metadata><defs
   id="defs991" /><sodipodi:namedview
   pagecolor="#ffffff"
   bordercolor="#666666"
   borderopacity="1"
   objecttolerance="10"
   gridtolerance="10"
   guidetolerance="10"
   inkscape:pageopacity="0"
   inkscape:pageshadow="2"
   inkscape:window-width="1858"
   inkscape:window-height="1057"
   id="namedview989"
   showgrid="false"
   inkscape:zoom="5.993266"
   inkscape:cx="65.275843"
   inkscape:cy="71.733607"
   inkscape:window-x="-8"
   inkscape:window-y="-8"
   inkscape:window-maximized="1"
   inkscape:current-layer="Layer_1"
   inkscape:document-rotation="0" />
<g
   id="g956"
   transform="matrix(0.09887611,0,0,0.10088634,1.500018,0.8672552)">
	<g
   id="g954">
		<g
   id="g952">
			<path
   d="M 296.287,144.915 C 295.927,144.046 287.215,123.404 264.515,102.9 243.777,84.167 206.814,61.836 148.5,61.836 89.855,61.836 52.907,84.173 32.237,102.912 9.6,123.435 1.041,144.105 0.688,144.975 c -0.909,2.24 -0.918,4.744 -0.024,6.99 0.347,0.871 8.75,21.569 31.327,42.112 20.599,18.744 57.533,41.087 116.509,41.087 57.653,0 94.643,-22.318 115.521,-41.041 22.823,-20.466 31.843,-41.054 32.215,-41.92 1.001,-2.322 1.018,-4.951 0.051,-7.288 z M 45.299,180.847 C 30.788,167.84 22.92,154.654 19.749,148.532 22.965,142.406 30.932,129.2 45.513,116.173 56.3,106.536 68.454,98.838 81.909,93.1 c -12.526,15.031 -20.073,34.35 -20.073,55.4 0,21.13 7.605,40.515 20.217,55.571 C 68.425,198.319 56.148,190.573 45.299,180.847 Z M 148.5,216.426 c -37.455,0 -67.926,-30.472 -67.926,-67.926 0,-37.454 30.471,-67.926 67.926,-67.926 37.455,0 67.926,30.472 67.926,67.926 0,37.454 -30.471,67.926 -67.926,67.926 z m 67.249,-13.327 c 12.131,-14.914 19.415,-33.92 19.415,-54.599 0,-20.964 -7.484,-40.212 -19.918,-55.217 13.277,5.723 25.308,13.365 36.026,22.91 14.541,12.949 22.596,26.074 25.899,32.251 -5.451,9.94 -23.488,37.847 -61.422,54.655 z"
   id="path948" />
			<path
   d="m 148.5,108.213 c -22.214,0 -40.287,18.073 -40.287,40.287 0,22.214 18.073,40.287 40.287,40.287 22.214,0 40.287,-18.073 40.287,-40.287 0,-22.214 -18.073,-40.287 -40.287,-40.287 z m 0,61.836 c -11.883,0 -21.549,-9.666 -21.549,-21.549 0,-11.883 9.667,-21.549 21.549,-21.549 11.882,0 21.549,9.666 21.549,21.549 0,11.883 -9.666,21.549 -21.549,21.549 z"
   id="path950" />
		</g>
	</g>
</g>
<g
   id="g958">
</g>
<g
   id="g960">
</g>
<g
   id="g962">
</g>
<g
   id="g964">
</g>
<g
   id="g966">
</g>
<g
   id="g968">
</g>
<g
   id="g970">
</g>
<g
   id="g972">
</g>
<g
   id="g974">
</g>
<g
   id="g976">
</g>
<g
   id="g978">
</g>
<g
   id="g980">
</g>
<g
   id="g982">
</g>
<g
   id="g984">
</g>
<g
   id="g986">
</g>
<ellipse
   style="fill:#000000;fill-rule:evenodd;stroke:#000000;stroke-width:2.48949;stroke-linecap:round"
   id="path1634"
   cx="16.233744"
   cy="15.84667"
   rx="2.4964256"
   ry="2.7867358" /></svg>
